# xmcd CD database file
# Copyright (C) 1996 Ti Kan
#
# Track frame offsets:
#  150
#  17305
#  30940
#  52312
#  67627
#  81015
#  110575
#  121967
#  136575
#  157552
#  176775
#  194775
#  210150
#  234900
#  252812
#  266605
#  285880
#
# Disc length: 3999 seconds
#
# Revision: 2
# Processed by: cddbd v1.4b41PL1 Copyright (c) Steve Scherf et al.
# Submitted via: CDWizzard Release:4.12
#
DISCID=cd0f9d11
DTITLE=Clarence "Gatemouth" Brown - Texas Swing
DYEAR=1900
DGENRE=
TTITLE0=Frosty
TTITLE1=Strollin' With Bones
TTITLE2=I Wonder
TTITLE3=Ain't That Dandy
TTITLE4=Baby Take It Easy
TTITLE5=Sometimes I Slip
TTITLE6=I Feel Alright Again
TTITLE7=Alligator Boogaloo
TTITLE8=Dollar Got The Blues
TTITLE9=Near Baku
TTITLE10=Gate Walks To Board
TTITLE11=Information Blues
TTITLE12=Song For Renee
TTITLE13=Stranded
TTITLE14=Big Yard
TTITLE15=One More Mile
TTITLE16=Flippin' Out
EXTD=
EXTT0=
EXTT1=
EXTT2=
EXTT3=
EXTT4=
EXTT5=
EXTT6=
EXTT7=
EXTT8=
EXTT9=
EXTT10=
EXTT11=
EXTT12=
EXTT13=
EXTT14=
EXTT15=
EXTT16=
PLAYORDER=
